<svg width="40" height="40" viewBox="0 0 40 40" fill="none" xmlns="http://www.w3.org/2000/svg">
<rect width="40" height="40" rx="20" fill="#E8B4CB"/>
<path d="M19.336 26.304C18.7707 26.304 18.2747 26.2347 17.848 26.096C17.432 25.9573 17.0747 25.792 16.776 25.6C16.488 25.3973 16.2587 25.2 16.088 25.008C15.9173 24.816 15.8 24.672 15.736 24.576C15.5547 24.3413 15.4427 24.1387 15.4 23.968C15.3573 23.7867 15.3787 23.6053 15.464 23.424C15.56 23.2427 15.72 23.0453 15.944 22.832C16.168 22.64 16.376 22.5387 16.568 22.528C16.7707 22.5067 16.968 22.5547 17.16 22.672C17.352 22.7893 17.5387 22.9547 17.72 23.168C17.976 23.4773 18.2267 23.696 18.472 23.824C18.728 23.9413 18.9947 24 19.272 24C19.624 24 19.9227 23.9573 20.168 23.872C20.4133 23.7867 20.6 23.6533 20.728 23.472C20.856 23.28 20.92 23.04 20.92 22.752C20.92 22.5173 20.8293 22.3307 20.648 22.192C20.4773 22.0427 20.2427 21.9147 19.944 21.808C19.656 21.7013 19.3307 21.6 18.968 21.504C18.616 21.3973 18.264 21.2747 17.912 21.136C17.6667 21.0507 17.432 20.944 17.208 20.816C16.984 20.688 16.7707 20.544 16.568 20.384C16.3653 20.224 16.1893 20.032 16.04 19.808C15.9013 19.584 15.7893 19.328 15.704 19.04C15.6293 18.752 15.592 18.4213 15.592 18.048C15.592 17.4187 15.7467 16.8587 16.056 16.368C16.3653 15.8773 16.792 15.4933 17.336 15.216C17.8907 14.928 18.5253 14.784 19.24 14.784C19.72 14.784 20.136 14.8267 20.488 14.912C20.8507 14.9973 21.1547 15.0987 21.4 15.216C21.6453 15.3333 21.8373 15.4507 21.976 15.568C22.1253 15.6747 22.2267 15.76 22.28 15.824C22.5787 16.1013 22.744 16.3413 22.776 16.544C22.808 16.736 22.696 17.008 22.44 17.36C22.1733 17.7333 21.9067 17.9413 21.64 17.984C21.384 18.0267 21.0907 17.936 20.76 17.712C20.632 17.5947 20.504 17.488 20.376 17.392C20.248 17.296 20.0933 17.2213 19.912 17.168C19.7413 17.104 19.512 17.072 19.224 17.072C19.0533 17.072 18.8933 17.0987 18.744 17.152C18.5947 17.1947 18.4667 17.2587 18.36 17.344C18.2533 17.4293 18.168 17.536 18.104 17.664C18.04 17.7813 18.008 17.9147 18.008 18.064C18.008 18.3093 18.088 18.5067 18.248 18.656C18.4187 18.8053 18.6373 18.928 18.904 19.024C19.1813 19.1093 19.4853 19.1947 19.816 19.28C20.1573 19.3547 20.504 19.4453 20.856 19.552C21.176 19.6587 21.4853 19.792 21.784 19.952C22.0827 20.1013 22.3493 20.2933 22.584 20.528C22.8187 20.7627 23.0053 21.056 23.144 21.408C23.2933 21.76 23.368 22.192 23.368 22.704C23.368 23.344 23.2453 23.8933 23 24.352C22.7547 24.8107 22.4293 25.184 22.024 25.472C21.6187 25.76 21.1813 25.968 20.712 26.096C20.2427 26.2347 19.784 26.304 19.336 26.304Z" fill="#2E2A2D"/>
</svg>
